<?xml version="1.0" encoding="utf-8"?>
<!-- Generator: Adobe Illustrator 18.1.1, SVG Export Plug-In . SVG Version: 6.00 Build 0)  -->
<!DOCTYPE svg PUBLIC "-//W3C//DTD SVG 1.1//EN" "http://www.w3.org/Graphics/SVG/1.1/DTD/svg11.dtd">
<svg version="1.1" id="Layer_1" xmlns="http://www.w3.org/2000/svg" xmlns:xlink="http://www.w3.org/1999/xlink" x="0px" y="0px"
	 width="100px" height="100px" viewBox="-255 347 100 100" enable-background="new -255 347 100 100" xml:space="preserve">
<g>
	<path fill="#5A2A2A" stroke="#5A2A2A" stroke-miterlimit="10" d="M-184,392.3c0.7,2.6,1.1,5.5,1.1,8.4c0,0.3,0,0.7,0,1l3.4,1.3
		l2.8-2.4l2.2,2.6l-4.3,3.5l-4.4-1.8c-0.5,3.9-1.7,7.6-3.4,10.7l0.6-0.8l3.3,1.9l3.2-1.9l1.8,2.9l-4.7,2.9l-5.2-3.1
		c-4.1,6.3-10.4,10.4-17.5,10.4s-13.4-4.1-17.5-10.4l-5.1,3l-4.7-2.9l1.8-2.9l3.2,1.9l3.3-1.9l0.2,0.3c-1.6-3-2.7-6.5-3.1-10.2
		l-4.3,1.7l-4.3-3.5l2.2-2.6l2.8,2.4l3.3-1.3c0-0.4,0-0.7,0-1.1c0-2.9,0.4-5.7,1.1-8.4l-5.6-0.2l-2.4-4.9l3-1.5l1.6,3.3l3.8,0.2
		l0.1,1.1c2.3-6.8,6.8-12.3,12.4-15c0.1-2.1,1.8-3.8,4-3.8h9.3c2.2,0,4,1.8,4,4c0,0.1,0,0.2,0,0.3c5.3,2.9,9.5,8.3,11.6,14.9
		l0.1-1.5l3.8-0.2l1.6-3.3l3,1.5l-2.4,4.9L-184,392.3z"/>
	<polygon fill="#5A2A2A" stroke="#5A2A2A" stroke-miterlimit="10" points="-193.9,368 -194.2,369.2 -195,369.5 -196.4,369.9 
		-197.6,370.6 -199.2,371.5 -199.2,370.6 -197.4,369.2 -196,368.8 -194.8,368 -194.1,366.6 -192.8,366.1 -193.1,367.4 	"/>
	<polygon fill="#5A2A2A" stroke="#5A2A2A" stroke-miterlimit="10" points="-213,369.9 -214.4,369.5 -215.1,369.2 -215.5,368 
		-216.2,367.4 -216.6,366.1 -215.2,366.6 -214.6,368 -213.4,368.8 -212,369.2 -210.1,370.6 -210.1,371.5 -211.8,370.6 	"/>
</g>
</svg>
