<svg xmlns="http://www.w3.org/2000/svg" width="100" height="100" viewBox="-255 347 100 100" enable-background="new -255 347 100 100"><g fill="#5A2A2A" stroke="#5A2A2A" stroke-miterlimit="10"><path d="M-184 392.3c.7 2.6 1.1 5.5 1.1 8.4v1l3.4 1.3 2.8-2.4 2.2 2.6-4.3 3.5-4.4-1.8c-.5 3.9-1.7 7.6-3.4 10.7l.6-.8 3.3 1.9 3.2-1.9 1.8 2.9-4.7 2.9-5.2-3.1c-4.1 6.3-10.4 10.4-17.5 10.4s-13.4-4.1-17.5-10.4l-5.1 3-4.7-2.9 1.8-2.9 3.2 1.9 3.3-1.9.2.3c-1.6-3-2.7-6.5-3.1-10.2l-4.3 1.7-4.3-3.5 2.2-2.6 2.8 2.4 3.3-1.3v-1.1c0-2.9.4-5.7 1.1-8.4l-5.6-.2-2.4-4.9 3-1.5 1.6 3.3 3.8.2.1 1.1c2.3-6.8 6.8-12.3 12.4-15 .1-2.1 1.8-3.8 4-3.8h9.3c2.2 0 4 1.8 4 4v.3c5.3 2.9 9.5 8.3 11.6 14.9l.1-1.5 3.8-.2 1.6-3.3 3 1.5-2.4 4.9-5.7.5zM-193.9 368l-.3 1.2-.8.3-1.4.4-1.2.7-1.6.9v-.9l1.8-1.4 1.4-.4 1.2-.8.7-1.4 1.3-.5-.3 1.3zM-213 369.9l-1.4-.4-.7-.3-.4-1.2-.7-.6-.4-1.3 1.4.5.6 1.4 1.2.8 1.4.4 1.9 1.4v.9l-1.7-.9z"/></g></svg>